<?xml version="1.0" encoding="UTF-8"?>
<svg id="Layer_1" data-name="Layer 1" xmlns="http://www.w3.org/2000/svg" viewBox="0 0 35 35">
 <path d="M27.63,23.15c-.88,0-1.6-.72-1.6-1.6v-8.96c0-.88-.72-1.6-1.6-1.6h-.86c-.88,0-1.6-.72-1.6-1.6v-.86c0-.88-.72-1.6-1.6-1.6h-9.82c-.88,0-1.6.72-1.6,1.6v1.72c0,.88.72,1.6,1.6,1.6h8.97c.88,0,1.6.72,1.6,1.6h0c0,.88-.72,1.6-1.6,1.6h-8.97c-.88,0-1.6.72-1.6,1.6v.86c0,.88-.72,1.6-1.6,1.6h-.86c-.88,0-1.6.72-1.6,1.6v1.72c0,.88.72,1.6,1.6,1.6h.86c.88,0,1.6.72,1.6,1.6v.86c0,.88.72,1.6,1.6,1.6h9.82c.88,0,1.6-.72,1.6-1.6v-.86c0-.88.72-1.6,1.6-1.6h0c.88,0,1.6.72,1.6,1.6v.86c0,.88.72,1.6,1.6,1.6h1.72c.88,0,1.6-.72,1.6-1.6v-1.72c0-.88-.72-1.6-1.6-1.6h-.86ZM21.12,21.55c0,.88-.72,1.6-1.6,1.6h-8.11c-.88,0-1.6-.72-1.6-1.6h0c0-.88.72-1.6,1.6-1.6h8.11c.88,0,1.6.72,1.6,1.6h0Z"/>
</svg>
